PathFileType	4	(X/Y/Z)	Demo_SinglePerson_0-99_filt_butterworth_LSTM.trc
DataRate	CameraRate	NumFrames	NumMarkers	Units	OrigDataRate	OrigDataStartFrame	OrigNumFrames
60	60	4	65	m	60	0	100
Frame#	Time	Hip			RHip			RKnee			RAnkle			RBigToe			RSmallToe			RHeel			LHip			LKnee			LAnkle			LBigToe			LSmallToe			LHeel			Neck			Head			Nose			RShoulder			RElbow			RWrist			LShoulder			LElbow			LWrist			r.ASIS_study			L.ASIS_study			r.PSIS_study			L.PSIS_study			r_knee_study			r_mknee_study			r_ankle_study			r_mankle_study			r_toe_study			r_5meta_study			r_calc_study			L_knee_study			L_mknee_study			L_ankle_study			L_mankle_study			L_toe_study			L_calc_study			L_5meta_study			r_shoulder_study			L_shoulder_study			C7_study			r_thigh1_study			r_thigh2_study			r_thigh3_study			L_thigh1_study			L_thigh2_study			L_thigh3_study			r_sh1_study			r_sh2_study			r_sh3_study			L_sh1_study			L_sh2_study			L_sh3_study			RHJC_study			LHJC_study			r_lelbow_study			r_melbow_study			r_lwrist_study			r_mwrist_study			L_lelbow_study			L_melbow_study			L_lwrist_study			L_mwrist_study			
		X1	Y1	Z1	X2	Y2	Z2	X3	Y3	Z3	X4	Y4	Z4	X5	Y5	Z5	X6	Y6	Z6	X7	Y7	Z7	X8	Y8	Z8	X9	Y9	Z9	X10	Y10	Z10	X11	Y11	Z11	X12	Y12	Z12	X13	Y13	Z13	X14	Y14	Z14	X15	Y15	Z15	X16	Y16	Z16	X17	Y17	Z17	X18	Y18	Z18	X19	Y19	Z19	X20	Y20	Z20	X21	Y21	Z21	X22	Y22	Z22	X23	Y23	Z23	X24	Y24	Z24	X25	Y25	Z25	X26	Y26	Z26	X27	Y27	Z27	X28	Y28	Z28	X29	Y29	Z29	X30	Y30	Z30	X31	Y31	Z31	X32	Y32	Z32	X33	Y33	Z33	X34	Y34	Z34	X35	Y35	Z35	X36	Y36	Z36	X37	Y37	Z37	X38	Y38	Z38	X39	Y39	Z39	X40	Y40	Z40	X41	Y41	Z41	X42	Y42	Z42	X43	Y43	Z43	X44	Y44	Z44	X45	Y45	Z45	X46	Y46	Z46	X47	Y47	Z47	X48	Y48	Z48	X49	Y49	Z49	X50	Y50	Z50	X51	Y51	Z51	X52	Y52	Z52	X53	Y53	Z53	X54	Y54	Z54	X55	Y55	Z55	X56	Y56	Z56	X57	Y57	Z57	X58	Y58	Z58	X59	Y59	Z59	X60	Y60	Z60	X61	Y61	Z61	X62	Y62	Z62	X63	Y63	Z63	X64	Y64	Z64	X65	Y65	Z65	
0	0.0	0.0178104096154756	0.9037475669474472	-1.4475056383606308	-0.0761811255196045	0.8997217652114364	-1.4315998323727466	-0.0410933599768292	0.4975327528353621	-1.4465267467000882	0.0295547473070518	0.1521841562575942	-1.5942073291193073	0.0310264809708669	0.0814936711887635	-1.5562855582175272	-0.0293601826502994	0.0772403961184131	-1.48134691905361	0.056366940652718	0.1076444649984891	-1.6323139124411878	0.1171756047629652	0.9014130881377476	-1.4240418449338004	0.0339110462799256	0.5862414375574035	-1.145461693561728	0.0050190794138063	0.1582327004253372	-1.1714805878339147	-0.0415285356318696	0.1104601227062998	-0.9929438212391908	0.0114199056149886	0.1115536806334193	-1.0108740593112808	0.001578619497785	0.0947097658664055	-1.1960323681475404	-0.0441961450698304	1.4694473729454622	-1.3957317960007325	-0.0716109479916559	1.7006076624348134	-1.2676799097771392	-0.072613694881599	1.540769019669714	-1.2248540629761668	-0.2073041947772406	1.3715829034238134	-1.4638643996804523	-0.293302888863803	1.110522454331918	-1.5298882901071051	-0.3680546773039729	0.9032914685381692	-1.3671141817393524	0.1467437506125911	1.4050988121004977	-1.4333121436601308	0.2715167619275117	1.155548082452686	-1.470048245297221	0.3545006168947465	0.9216569470705168	-1.4307342531399547	-0.13339133029178912	0.9629605272502769	-1.4029313478466385	0.15098806257053082	0.9676010170669426	-1.3846314105984086	-0.03679708977536493	0.9854455971808304	-1.5871813300844544	0.07344700927539534	0.9880026736945976	-1.5794438723322266	-0.08498107855514818	0.4846901083083023	-1.4427856163900608	0.029049557360548442	0.4924425268263687	-1.4307907357659453	-0.022510705788891847	0.12984270692776334	-1.6127662215229386	0.06511665667100615	0.13208264947842252	-1.588757142781865	0.00907842508210606	0.07105089069317472	-1.5233316797610634	-0.046170870115321214	0.0742935621828903	-1.5604982230659836	0.04179497222109503	0.11803061605404508	-1.6678307358023041	0.1144978606204576	0.5895188832373489	-1.16543321347202	-0.015441464533370072	0.5938145303816665	-1.1593645069595688	0.05857278565569586	0.1584196174235214	-1.1858504865166062	-0.04395204996065431	0.1704410994143356	-1.169154122829091	-0.011233428766291673	0.1301484787554611	-1.0370001647468918	0.0025862163926548415	0.13143134952496183	-1.2632460001703614	0.06673011342688269	0.1201808536143173	-1.0796681199070328	-0.20677157705025012	1.423380800494658	-1.419738462552082	0.12754996652408307	1.4521643006892075	-1.418051822468292	-0.050081039120715196	1.4636312210650315	-1.5139610621925705	-0.12989560728267963	0.7420408511252273	-1.3998326327499264	-0.13369278078274066	0.6398308956713546	-1.4211637586202734	-0.15468406145767505	0.7370193982214798	-1.4973243255015725	0.1689990663032121	0.8357053929657806	-1.2857155505415314	0.17198366458221143	0.7361568147034515	-1.241898194312703	0.2058708571891374	0.7628583842606415	-1.3904203962382191	-0.07640277807907396	0.36669231296490323	-1.4876573163863533	-0.06858852719263368	0.24722201467465055	-1.5127035606500023	-0.07304545705513292	0.29255146623562467	-1.571536116659295	0.10495476956172652	0.4522673273177017	-1.1532712433334702	0.09652508581681914	0.3256310308070053	-1.1283247325416916	0.11264761323733992	0.33896321893643033	-1.2095189396139496	-0.06385871981577211	0.8786349715382923	-1.4848499487933033	0.10801070714994139	0.8819404830874075	-1.4736820984479302	-0.3315275556345397	1.10204707921456	-1.5283051434751862	-0.23831790154175098	1.071684935101973	-1.5418311212059372	-0.34310075109199817	0.9192931037114133	-1.330554291963231	-0.35280876820282275	0.8713100151808132	-1.406385705232274	0.323377495358426	1.1484769666285386	-1.4879822436567658	0.24780251617236798	1.1221482986302247	-1.5255558568831795	0.33110705549522107	0.9053346832233612	-1.3875813711282128	0.35895196134849255	0.8862702725173105	-1.4669864311661833
1	0.0166666666666666	0.015213907464617	0.90156850887215	-1.4388868145038034	-0.0788006216559056	0.89655120693915	-1.425705410574044	-0.0413035781451221	0.4919239528346546	-1.4442617874710144	0.0290191753779171	0.1530306866352176	-1.5934636492413972	0.0247845745971339	0.075089621799097	-1.5053048980748955	-0.0262893663315968	0.0719888231408675	-1.4982346174850838	0.052909798033972	0.1085864437646716	-1.6325100139415607	0.1235038484202967	0.8912046174066575	-1.4170020530282246	0.0362292331014021	0.5640557550497511	-1.161412949197608	0.003439473612796	0.1553066962919678	-1.1685326690623787	-0.0432049215044579	0.1072652313829216	-0.9903146871325544	0.0104704034247402	0.1066405478679684	-1.0097054207225382	0.0002950555793772	0.0930503163955652	-1.195077031733516	-0.0378909762887142	1.4712738043112628	-1.3859767455405243	-0.0623062486205152	1.6977592785769753	-1.2603145355649286	-0.0632989970426773	1.541343786779691	-1.2144663635867077	-0.2023673784462946	1.3741522805447517	-1.4571366780647392	-0.2924214432793623	1.1158787893680555	-1.5175105391470236	-0.3704659222490724	0.9127971944398452	-1.3552763713516904	0.1489399360682124	1.4047058013285685	-1.4319768693172763	0.2746480629016715	1.1537775950414535	-1.4588753957835434	0.3558558317890963	0.9196829091008778	-1.422533776039131	-0.1361106478132074	0.9669878326145397	-1.3953362561155702	0.14894296298848939	0.963769561776279	-1.3678457371283914	-0.03246731986177613	0.9862802766052471	-1.5826132676888849	0.07844252954351257	0.985384344288467	-1.5719963393498804	-0.09513654489887406	0.48327539039528233	-1.4419373588029887	0.022177989362948642	0.49451959801590306	-1.4275849542905237	-0.019148725316650166	0.12597361875450475	-1.6143407753993417	0.07059804047571967	0.12991724086677892	-1.5870957306910898	0.013469930739351616	0.06725410295402867	-1.520531729548111	-0.04104963620079209	0.0718440182296024	-1.5604276365925218	0.04589934158253024	0.116723275908588	-1.6719326458264734	0.10715473513233016	0.5825939543334232	-1.1668957404185678	-0.021447605685121312	0.5935052104083286	-1.1702181927253152	0.05978659237849067	0.15057275367653233	-1.1651522151519205	-0.04122225497735192	0.16815391851341588	-1.1540835432101633	-0.018095414385921254	0.12843391967689854	-1.0156393877555276	0.008890788304829107	0.12285552097236974	-1.2443090013553049	0.0610777034901316	0.11132863832390172	-1.055170678286686	-0.2080395810760324	1.4324818022338137	-1.4212816830117847	0.12911114166604828	1.4663853414145693	-1.4032753712822343	-0.046464781508571404	1.4705247647849307	-1.510446400134697	-0.13918404211176086	0.7378640986767994	-1.389948521493807	-0.14368992973936248	0.6356223292437778	-1.4153786103565837	-0.1613348566449945	0.7336324967232929	-1.498131402521267	0.16405651043283295	0.8287411696997867	-1.2771801731873895	0.16631262074338746	0.7283139444676624	-1.2355856827784921	0.20136405597554993	0.7515431858388172	-1.3778250820328142	-0.08290406991613557	0.36528883052742345	-1.4860384731878187	-0.07176203955782105	0.24438909364616734	-1.5087661526490594	-0.07652740110529115	0.28892538619911534	-1.5753264508534814	0.10018073837386916	0.44707668496048314	-1.1497199467708017	0.09371629427301238	0.3226865894881473	-1.1167087785293008	0.11000684718715499	0.3270876772490726	-1.1979429505158807	-0.06631470401657273	0.8780260972467647	-1.4806139923025514	0.10589526663648437	0.8763937197414623	-1.4641621827472593	-0.3364367478050058	1.1029895610896334	-1.5298856503654863	-0.2393527918018167	1.0722994722214922	-1.5232987634230997	-0.36138120223653963	0.9253328732935177	-1.3232054717232133	-0.3591404848254984	0.8727955978152738	-1.3905601694573309	0.32513377140390226	1.153722650536655	-1.4815838902582075	0.24681095848905396	1.1243960775223956	-1.51271422275795	0.3430955118976767	0.9096105845434056	-1.377736833630934	0.36582702468263456	0.8901544885498868	-1.4589335943896915
2	0.0333333333333333	0.0123729945566729	0.9000060788725521	-1.430171365567897	-0.0817021376500707	0.8947312314523392	-1.4189245793141934	-0.0417999784807417	0.4877085919911687	-1.4415207084142967	0.0285318024739883	0.1540531784505951	-1.5929699055204818	0.017640857632022	0.0697044161514535	-1.4634021850606875	-0.0252999690294743	0.0677401848970428	-1.510003802073274	0.0501164099844441	0.1099391842039982	-1.6327832558435666	0.1264762179424118	0.8840235197482903	-1.4096415433695264	0.0365027389491585	0.5460379567287188	-1.1726250257264312	0.0016518912446624	0.1527120919491279	-1.1656959217903522	-0.0445474241644153	0.104467246340137	-0.9880777652711304	0.0096994096731145	0.1022881026689891	-1.0088829682407765	-0.0011746943468283	0.0914773901820296	-1.194118079926854	-0.0311931933952171	1.4727707437826845	-1.3765284872939172	-0.052396053176721	1.6959299638239838	-1.25240187713517	-0.0542087627516749	1.5419385967661503	-1.204245040220935	-0.1972736285365791	1.3771113891925335	-1.4498752193713578	-0.2919218346579978	1.1220570389960471	-1.505758655290815	-0.3733655199937105	0.9228870385230532	-1.3435532127616685	0.15186897874095	1.4038630417141498	-1.4292037488639926	0.277813793901679	1.1513544116748815	-1.4478100207903877	0.3569409790928574	0.9172012624479482	-1.4137346150205203	-0.1404544024321958	0.9697431705330517	-1.3872949394373637	0.14698862446809563	0.9625537402366307	-1.355736273059104	-0.03346166597341743	0.9860610074733402	-1.5736532161919814	0.07811533822084221	0.9837409264777806	-1.5611552993743163	-0.1014929397556707	0.48288621822344324	-1.4373153342841607	0.01735633122140917	0.4947634271715786	-1.422572323305015	-0.019317677483312756	0.12852891603456995	-1.6081608633486968	0.07077729119325432	0.13367404857622645	-1.579687754341815	0.011815283849019587	0.07241799751268885	-1.5045631925551635	-0.043729754403583676	0.07481917062746546	-1.5471784721104842	0.047838354244478076	0.11889531532274744	-1.6685118327824813	0.10277519537473473	0.5652879706953671	-1.1687492380826217	-0.023328894988052518	0.5766948691939022	-1.1769235382764083	0.05605112923646721	0.1432724229429867	-1.161058063337062	-0.04250969575380531	0.1601094237898495	-1.1525395761220198	-0.022490533307544858	0.11994817176805994	-1.0139292429177504	0.008617330802254408	0.11607839981066248	-1.2386656056134444	0.054436886444337695	0.10281976381289026	-1.049581194946025	-0.20982559607958046	1.4389628998373654	-1.4215995554788452	0.13086072517896447	1.474634849223962	-1.3973089183656913	-0.04447829933499542	1.476272188815942	-1.5074584732739669	-0.14424698637460914	0.7334116182659771	-1.3821822206465941	-0.1492204575393125	0.6328186623190548	-1.409194956251834	-0.1660100130889341	0.7324009768103268	-1.4934446762292128	0.1586001457121447	0.8178294754956867	-1.2677799860923034	0.1610151471045092	0.7147803984020855	-1.229782114454959	0.19695987714792046	0.7437532774542477	-1.369825808980916	-0.08723717765545097	0.36562874237047693	-1.481445240506385	-0.07550291554664817	0.2459134689901974	-1.5026306162564498	-0.07788681821560112	0.2894453636740353	-1.5715146164386016	0.09514897479081902	0.4318947724436428	-1.1512335489480239	0.08794497860933098	0.3099444142912533	-1.1154128561703902	0.1058093474652842	0.3160658709143307	-1.1958103130547744	-0.06956722424959388	0.8766723859493639	-1.4737746666161757	0.10396704985166344	0.8726647670750525	-1.4546604107110244	-0.3338176666352674	1.1068709127043392	-1.5233146573393088	-0.2419909893128797	1.073585369381776	-1.511625828870986	-0.36495057331060615	0.9342502511476185	-1.3153603847114783	-0.36190707074140754	0.8804742197875883	-1.3744031886546355	0.32448294176126274	1.1548043719862606	-1.4711791264800769	0.24574413312936577	1.1214053563212063	-1.5000880460231047	0.34567039622331414	0.9055505182963814	-1.3670333872525435	0.3675652088072375	0.8876916204948928	-1.4477628922997456
3	0.05	0.0091630734029902	0.8993139372910802	-1.4210379776572852	-0.084907100678241	0.8947264155027198	-1.4106898458847457	-0.0427785945301006	0.4854427530391026	-1.4380069517889489	0.0280159459743559	0.1553838130401126	-1.5928374139759895	0.0100740469511685	0.0658832876444812	-1.4353317631643792	-0.0268171373803363	0.0649600275616345	-1.515166613932606	0.0481467637975036	0.1119035924722433	-1.633074082363241	0.1245466907673766	0.8810269276329206	-1.4018809433301271	0.0340312097481369	0.5346030594294016	-1.176847668974178	-0.0003763378928921	0.1507914749058387	-1.163079756630076	-0.0453690631626737	0.1023418407514377	-0.9863505212420056	0.0091632369708443	0.0988298941551263	-1.0085116255916426	-0.0028675967572892	0.0902224943621966	-1.193090136231912	-0.0238428577180932	1.47381315817629	-1.3674917256214734	-0.0414379699821492	1.6955012466629118	-1.2436125103783926	-0.0451205942901798	1.5426844617432065	-1.194259289477331	-0.1918800804324528	1.3807099986999425	-1.4417372371715007	-0.2920036964097998	1.1294711196143608	-1.4950835143443684	-0.3769269123968231	0.9339963351729031	-1.3317860562834676	0.1560957982054414	1.4022283825918451	-1.424015625530768	0.2809939118988266	1.147999188385234	-1.4370113325338083	0.3575742256362094	0.9140441298232428	-1.4041146471874664	-0.14388667871321312	0.9722187103475873	-1.377704711726871	0.14572908650075325	0.9605514773871248	-1.3460479435538917	-0.03529351656402221	0.9863579528178518	-1.5634728279924064	0.07721140156422983	0.9823239998664205	-1.550897559246984	-0.10449930359686484	0.47994182573216604	-1.4379265868132978	0.014308302336533166	0.49244890676396536	-1.4212809481627817	-0.02016681698227992	0.12946457730191396	-1.607577001771894	0.06901129255925546	0.13550813065426992	-1.5765834954595237	0.008300510548681564	0.07170427904980825	-1.4936639648890166	-0.04639725466335883	0.0746156679238622	-1.5408014190411239	0.048579174232829904	0.1215391265000646	-1.669425835928884	0.1012595735016955	0.552965621813709	-1.171262418947187	-0.02424074788654914	0.5646029816712682	-1.18112244280335	0.053563687157977914	0.13841045962231802	-1.1590195355033546	-0.044130519824873114	0.15451003180401968	-1.1515088436221748	-0.022665005969654227	0.11503554449933218	-1.0127191898440986	0.006528637510885097	0.11075706349270986	-1.2359446642017036	0.052483725500453805	0.10011364088910268	-1.0467321631526618	-0.204800062673937	1.447140048607761	-1.413906501236376	0.13678751061593422	1.4807397829140965	-1.3892306257998615	-0.038787108707080985	1.481339644059116	-1.499020172378984	-0.1501515739139425	0.7294328467692678	-1.3762863968526988	-0.15392545689905754	0.6292026148881261	-1.406332054271367	-0.16873730053270927	0.73136016295808	-1.4896620643353133	0.1551380522075785	0.8088940487946813	-1.2606392261600166	0.15828635464345345	0.7044536279286687	-1.2261695024585395	0.19441764722501167	0.7386468754853551	-1.364127421847549	-0.08923434545363058	0.3638492332543676	-1.4825813603615432	-0.07766809393728842	0.24563420878308462	-1.503282910308805	-0.0777657412465917	0.2885775672044103	-1.572374006829229	0.0934216223183764	0.4220405624951665	-1.1532711443519263	0.08584700445567499	0.30220545397656606	-1.115696674308744	0.10373662332927118	0.3081209169472997	-1.1954631564235358	-0.07371000279749503	0.8769385492201393	-1.4648251739358573	0.10110022048388849	0.8702498500938957	-1.4456287101870446	-0.33252874841059316	1.1114734517182652	-1.5144980234121947	-0.24351430763567558	1.076906870469028	-1.5012941640829711	-0.3690416895326482	0.94281789602297	-1.307504272184339	-0.36692664851511586	0.888634985662574	-1.3601293248152404	0.3253966189447535	1.1531171308602635	-1.4604102727985053	0.24479297469293007	1.1182824330176655	-1.4867215436911254	0.347749284607519	0.902344649774531	-1.3556330931400924	0.369092217785467	0.8859811596344654	-1.4339647238170772
